#!/bin/bash
aseqdump -p "DJ2GO2" | \
while IFS=" ," read src ev1 ev2 ch label1 data1 label2 data2 rest; do
    case "$ev1 $ev2 $ch $data1 $data2" in       
        #? Pad Mode Button
        # "Note on 4 0 5" ) echo "LAuto Selected" ;;
        # "Note on 5 0 5" ) echo "RAuto Selected" ;;
        # "Note on 4 0 11" ) echo "LManual Selected" ;;
        # "Note on 5 0 11" ) echo "RManual Selected" ;;
        # "Note on 4 0 7" ) echo "LSampler Selected" ;;
        # "Note on 5 0 7" ) echo "RSampler Selected" ;;
        # "Note off 4 0 0" ) echo "LCues Selected" ;;
        # "Note off 5 0 0" ) echo "RCues Selected" ;;
        "Note on 4 0 5" ) echo "Auto Mode" ;;
        "Note on 4 0 11" ) echo "Manual Mode" ;;
        "Note on 4 0 7" ) echo "Sampler Mode" ;;
        "Note off 4 0 0" ) echo "Cues Mode" ;;

        #? Cues Section
        "Note on 4 1 127" ) echo "L1" ;;
        "Note on 4 2 127" ) echo "L2" ;;
        "Note on 4 3 127" ) echo "L3" ;;
        "Note on 4 4 127" ) echo "L4" ;;

        # "Note off 4 1 0" ) echo "L1'" ;;
        # "Note off 4 2 0" ) echo "L2'" ;;
        # "Note off 4 3 0" ) echo "L3'" ;;
        # "Note off 4 4 0" ) echo "L4'" ;;

        "Note on 5 1 127" ) echo "R1" ;;
        "Note on 5 2 127" ) echo "R2" ;;
        "Note on 5 3 127" ) echo "R3" ;;
        "Note on 5 4 127" ) echo "R4" ;;

        # "Note off 5 1 0" ) echo "R1'" ;;
        # "Note off 5 2 0" ) echo "R2'" ;;
        # "Note off 5 3 0" ) echo "R3'" ;;
        # "Note off 5 4 0" ) echo "R4'" ;;

        #? Auto Section
        "Note on 4 17 127" ) echo "L1" ;;
        "Note on 4 18 127" ) echo "L2" ;;
        "Note on 4 19 127" ) echo "L3" ;;
        "Note on 4 20 127" ) echo "L4" ;;

        # "Note off 4 17 0" ) echo "L1'" ;;
        # "Note off 4 18 0" ) echo "L2'" ;;
        # "Note off 4 19 0" ) echo "L3'" ;;
        # "Note off 4 20 0" ) echo "L4'" ;;

        "Note on 5 17 127" ) echo "R1" ;;
        "Note on 5 18 127" ) echo "R2" ;;
        "Note on 5 19 127" ) echo "R3" ;;
        "Note on 5 20 127" ) echo "R4" ;;

        # "Note off 5 17 0" ) echo "R1'" ;;
        # "Note off 5 18 0" ) echo "R2'" ;;
        # "Note off 5 19 0" ) echo "R3'" ;;
        # "Note off 5 20 0" ) echo "R4'" ;;

        #? Manual Section
        "Note on 4 33 127" ) echo "L1" ;;
        "Note on 4 34 127" ) echo "L2" ;;
        "Note on 4 35 127" ) echo "L3" ;;
        "Note on 4 36 127" ) echo "L4" ;;

        # "Note off 4 33 0" ) echo "L1'" ;;
        # "Note off 4 34 0" ) echo "L2'" ;;
        # "Note off 4 35 0" ) echo "L3'" ;;
        # "Note off 4 36 0" ) echo "L4'" ;;

        "Note on 5 33 127" ) echo "R1" ;;
        "Note on 5 34 127" ) echo "R2" ;;
        "Note on 5 35 127" ) echo "R3" ;;
        "Note on 5 36 127" ) echo "R4" ;;

        # "Note off 5 33 0" ) echo "R1'" ;;
        # "Note off 5 34 0" ) echo "R2'" ;;
        # "Note off 5 35 0" ) echo "R3'" ;;
        # "Note off 5 36 0" ) echo "R4'" ;;

        #? Sampler Section
        "Note on 4 49 127" ) echo "L1" ;;
        "Note on 4 50 127" ) echo "L2" ;;
        "Note on 4 51 127" ) echo "L3" ;;
        "Note on 4 52 127" ) echo "L4" ;;

        # "Note off 4 49 0" ) echo "L1'" ;;
        # "Note off 4 50 0" ) echo "L2'" ;;
        # "Note off 4 51 0" ) echo "L3'" ;;
        # "Note off 4 52 0" ) echo "L4'" ;;

        "Note on 5 49 127" ) echo "R1" ;;
        "Note on 5 50 127" ) echo "R2" ;;
        "Note on 5 51 127" ) echo "R3" ;;
        "Note on 5 52 127" ) echo "R4" ;;

        # "Note off 5 49 0" ) echo "R1'" ;;
        # "Note off 5 50 0" ) echo "R2'" ;;
        # "Note off 5 51 0" ) echo "R3'" ;;
        # "Note off 5 52 0" ) echo "R4'" ;;

        #? Headphones Buttons
        "Note on 0 27 127" ) echo "LHeadphones ON" ;;
        "Note off 0 27 0" ) echo "LHeadphones OFF" ;;
        
        "Note on 1 27 127" ) echo "RHeadphones ON" ;;
        "Note off 1 27 0" ) echo "RHeadphones OFF" ;;

        #? Left Player
        "Note on 0 0 127" ) echo "LPausePlay" ;;
        "Note on 0 1 127" ) echo "LCue" ;;
        "Note on 0 2 127" ) echo "LSync" ;;

        # "Note off 0 0 0" ) echo "LPausePlay'" ;;
        # "Note off 0 1 0" ) echo "LCue'" ;;
        # "Note off 0 2 0" ) echo "LSync'" ;;

        #? Right Player
        "Note on 1 0 127" ) echo "RPausePlay" ;;
        "Note on 1 1 127" ) echo "RCue" ;;
        "Note on 1 2 127" ) echo "RSync" ;;

        # "Note off 1 0 0" ) echo "RPausePlay'" ;;
        # "Note off 1 1 0" ) echo "RCue'" ;;
        # "Note off 1 2 0" ) echo "RSync'" ;;

        #? Load Buttons
        "Note on 15 2 127" ) echo "Load 1" ;;
        # "Note off 15 2 0" ) echo "Load 1'" ;;
        "Note on 15 3 127" ) echo "Load 2" ;;
        # "Note off 15 3 0" ) echo "Load 2'" ;;

        #? Left Jog wheel
        "Control change 0 6 1" ) echo "LSpin Clockwise" ;;
        "Control change 0 6 127" ) echo "LSpin Counter-Clockwise" ;;

        #? Right Jog Wheel
        "Control change 1 6 1" ) echo "RSpin Clockwise" ;;
        "Control change 1 6 127" ) echo "RSpin Counter-Clockwise" ;;

        #? Browse Button & Wheel
        "Note on 15 6 127" ) echo "Browse" ;;
        # "Note off 15 6 0" ) echo "Browse'" ;;

        "Control change 15 0 1" ) echo "Browse Clockwise" ;;
        "Control change 15 0 127" ) echo "Browse Counter-Clockwise" ;;
        
        #? Crossfader
        "Control change 15 8 "* ) echo "Crossfader $data2" ;;

        #? Master Level
        "Control change 15 10 "* ) amixer set Master $(echo "scale=2;$data2/127*100" | bc)% ;;
        # "Control change 15 10 "* ) amixer set Master $data2% ;; # Raw input if you want more than 100% volume (127% to be excact)

        #? CH1 Level
        "Control change 0 22 "* ) echo "CH1 Level $data2" ;;

        #? CH2 Level
        "Control change 1 22 "* ) echo "CH2 Level $data2" ;;

        #? Cue Level
        "Control change 15 12 "* ) echo "Cue Level $data2" ;;

        #? Track Speed
        "Control change 0 9 "* ) echo "LTrack Speed $data2" ;;
        "Control change 1 9 "* ) echo "RTrack Speed $data2" ;;
    esac
done